<svg viewBox="0 0 1000 600" xmlns="http://www.w3.org/2000/svg">
  <text x="500" y="40" font-size="26" font-weight="bold" text-anchor="middle" fill="#2c3e50">Java Editions in Real World</text>
  <text x="500" y="70" font-size="15" text-anchor="middle" fill="#7f8c8d">Where Each Edition Shines</text>

  <rect x="50" y="100" width="280" height="450" rx="12" fill="#e3f2fd" stroke="#3498db" stroke-width="2"/>
  <text x="190" y="130" font-size="20" font-weight="bold" text-anchor="middle" fill="#3498db">Java SE Applications</text>
  
  <rect x="70" y="150" width="240" height="80" rx="8" fill="#ecf0f1" stroke="#3498db" stroke-width="2"/>
  <text x="85" y="175" font-size="16" font-weight="bold" fill="#2c3e50">Desktop Apps</text>
  <text x="85" y="195" font-size="12" fill="#34495e">• IntelliJ IDEA</text>
  <text x="85" y="212" font-size="12" fill="#34495e">• Eclipse IDE</text>
  <text x="85" y="229" font-size="12" fill="#34495e">• NetBeans</text>
  
  <rect x="70" y="245" width="240" height="80" rx="8" fill="#ecf0f1" stroke="#3498db" stroke-width="2"/>
  <text x="85" y="270" font-size="16" font-weight="bold" fill="#2c3e50">Games</text>
  <text x="85" y="290" font-size="12" fill="#34495e">• Minecraft</text>
  <text x="85" y="307" font-size="12" fill="#34495e">• RuneScape</text>
  <text x="85" y="324" font-size="12" fill="#34495e">• Desktop Games</text>
  
  <rect x="70" y="340" width="240" height="80" rx="8" fill="#ecf0f1" stroke="#3498db" stroke-width="2"/>
  <text x="85" y="365" font-size="16" font-weight="bold" fill="#2c3e50">Development Tools</text>
  <text x="85" y="385" font-size="12" fill="#34495e">• Gradle</text>
  <text x="85" y="402" font-size="12" fill="#34495e">• Maven</text>
  <text x="85" y="419" font-size="12" fill="#34495e">• Jenkins</text>
  
  <rect x="70" y="435" width="240" height="100" rx="8" fill="#ecf0f1" stroke="#3498db" stroke-width="2"/>
  <text x="85" y="460" font-size="16" font-weight="bold" fill="#2c3e50">Learning and Scripts</text>
  <text x="85" y="480" font-size="12" fill="#34495e">• First Java programs</text>
  <text x="85" y="497" font-size="12" fill="#34495e">• Command-line utilities</text>
  <text x="85" y="514" font-size="12" fill="#34495e">• Automation scripts</text>

  <rect x="360" y="100" width="280" height="450" rx="12" fill="#ffebee" stroke="#e74c3c" stroke-width="2"/>
  <text x="500" y="130" font-size="20" font-weight="bold" text-anchor="middle" fill="#e74c3c">Java EE Applications</text>
  
  <rect x="380" y="150" width="240" height="80" rx="8" fill="#ecf0f1" stroke="#e74c3c" stroke-width="2"/>
  <text x="395" y="175" font-size="16" font-weight="bold" fill="#2c3e50">Banking Systems</text>
  <text x="395" y="195" font-size="12" fill="#34495e">• Online Banking</text>
  <text x="395" y="212" font-size="12" fill="#34495e">• Payment Processing</text>
  <text x="395" y="229" font-size="12" fill="#34495e">• Stock Trading</text>
  
  <rect x="380" y="245" width="240" height="80" rx="8" fill="#ecf0f1" stroke="#e74c3c" stroke-width="2"/>
  <text x="395" y="270" font-size="16" font-weight="bold" fill="#2c3e50">E-commerce</text>
  <text x="395" y="290" font-size="12" fill="#34495e">• Amazon Backend</text>
  <text x="395" y="307" font-size="12" fill="#34495e">• eBay Platform</text>
  <text x="395" y="324" font-size="12" fill="#34495e">• Online Stores</text>
  
  <rect x="380" y="340" width="240" height="80" rx="8" fill="#ecf0f1" stroke="#e74c3c" stroke-width="2"/>
  <text x="395" y="365" font-size="16" font-weight="bold" fill="#2c3e50">Enterprise Apps</text>
  <text x="395" y="385" font-size="12" fill="#34495e">• CRM Systems</text>
  <text x="395" y="402" font-size="12" fill="#34495e">• ERP Solutions</text>
  <text x="395" y="419" font-size="12" fill="#34495e">• HR Management</text>
  
  <rect x="380" y="435" width="240" height="100" rx="8" fill="#ecf0f1" stroke="#e74c3c" stroke-width="2"/>
  <text x="395" y="460" font-size="16" font-weight="bold" fill="#2c3e50">Web Services</text>
  <text x="395" y="480" font-size="12" fill="#34495e">• REST APIs</text>
  <text x="395" y="497" font-size="12" fill="#34495e">• Microservices</text>
  <text x="395" y="514" font-size="12" fill="#34495e">• Cloud Applications</text>

  <rect x="670" y="100" width="280" height="450" rx="12" fill="#e8f5e9" stroke="#27ae60" stroke-width="2"/>
  <text x="810" y="130" font-size="20" font-weight="bold" text-anchor="middle" fill="#27ae60">Java ME Applications</text>
  
  <rect x="690" y="150" width="240" height="80" rx="8" fill="#ecf0f1" stroke="#27ae60" stroke-width="2"/>
  <text x="705" y="175" font-size="16" font-weight="bold" fill="#2c3e50">Mobile Devices</text>
  <text x="705" y="195" font-size="12" fill="#34495e">• Feature Phones</text>
  <text x="705" y="212" font-size="12" fill="#34495e">• Old Nokia Phones</text>
  <text x="705" y="229" font-size="12" fill="#34495e">• Basic Mobile Games</text>
  
  <rect x="690" y="245" width="240" height="80" rx="8" fill="#ecf0f1" stroke="#27ae60" stroke-width="2"/>
  <text x="705" y="270" font-size="16" font-weight="bold" fill="#2c3e50">Embedded Systems</text>
  <text x="705" y="290" font-size="12" fill="#34495e">• Smart Cards</text>
  <text x="705" y="307" font-size="12" fill="#34495e">• Set-top Boxes</text>
  <text x="705" y="324" font-size="12" fill="#34495e">• Car Navigation</text>
  
  <rect x="690" y="340" width="240" height="80" rx="8" fill="#ecf0f1" stroke="#27ae60" stroke-width="2"/>
  <text x="705" y="365" font-size="16" font-weight="bold" fill="#2c3e50">IoT Devices</text>
  <text x="705" y="385" font-size="12" fill="#34495e">• Sensors</text>
  <text x="705" y="402" font-size="12" fill="#34495e">• Smart Home Devices</text>
  <text x="705" y="419" font-size="12" fill="#34495e">• Industrial Controls</text>
  
  <rect x="690" y="435" width="240" height="100" rx="8" fill="#ecf0f1" stroke="#27ae60" stroke-width="2"/>
  <text x="705" y="460" font-size="16" font-weight="bold" fill="#2c3e50">Consumer Electronics</text>
  <text x="705" y="480" font-size="12" fill="#34495e">• Blu-ray Players</text>
  <text x="705" y="497" font-size="12" fill="#34495e">• Printers</text>
  <text x="705" y="514" font-size="12" fill="#34495e">• TV Systems</text>

  <rect x="200" y="565" width="600" height="25" rx="5" fill="#f8f9fa" stroke="#95a5a6" stroke-width="1"/>
  <text x="500" y="582" font-size="12" text-anchor="middle" fill="#2c3e50">Choose the edition based on your application deployment environment and requirements</text>
</svg>
