<svg xmlns="http://www.w3.org/2000/svg" width="1200" height="675" viewBox="0 0 1200 675">
  <rect width="1200" height="675" fill="#0b1324"/>
  <text x="600" y="90" text-anchor="middle" font-family="Segoe UI, Arial" font-size="38" fill="#e2e8f0">Scope Comparison Table</text>
  <text x="600" y="130" text-anchor="middle" font-family="Segoe UI, Arial" font-size="18" fill="#94a3b8">Instances • Lifetime • Shared?</text>

  <rect x="120" y="170" width="960" height="400" rx="16" fill="#111827" stroke="#38bdf8"/>
  <g font-family="Segoe UI, Arial" font-size="16" fill="#e2e8f0">
    <text x="160" y="210">Scope</text>
    <text x="420" y="210">Instances</text>
    <text x="650" y="210">Lifetime</text>
    <text x="900" y="210">Shared</text>

    <text x="160" y="260">Singleton</text>
    <text x="420" y="260">1</text>
    <text x="650" y="260">App</text>
    <text x="900" y="260">Yes</text>

    <text x="160" y="310">Prototype</text>
    <text x="420" y="310">Many</text>
    <text x="650" y="310">GC</text>
    <text x="900" y="310">No</text>

    <text x="160" y="360">Request</text>
    <text x="420" y="360">1</text>
    <text x="650" y="360">Request</text>
    <text x="900" y="360">No</text>

    <text x="160" y="410">Session</text>
    <text x="420" y="410">1</text>
    <text x="650" y="410">Session</text>
    <text x="900" y="410">Per user</text>

    <text x="160" y="460">Application</text>
    <text x="420" y="460">1</text>
    <text x="650" y="460">App</text>
    <text x="900" y="460">Yes</text>
  </g>
</svg>
